<?xml version="1.0" standalone="no"?>
<!DOCTYPE svg PUBLIC "-//W3C//DTD SVG 1.1//EN" "http://www.w3.org/Graphics/SVG/1.1/DTD/svg11.dtd" >
<svg xmlns="http://www.w3.org/2000/svg" xmlns:xlink="http://www.w3.org/1999/xlink" version="1.1">
<metadata></metadata>
<defs>
<font id="right_groteskcompact_black" horiz-adv-x="974" >
<font-face units-per-em="2048" ascent="1638" descent="-410" />
<missing-glyph horiz-adv-x="266" />
<glyph horiz-adv-x="0" />
<glyph horiz-adv-x="682" />
<glyph unicode=" "  horiz-adv-x="266" />
<glyph unicode="&#x09;" horiz-adv-x="266" />
<glyph unicode="&#xa0;" horiz-adv-x="266" />
<glyph unicode="!" horiz-adv-x="498" d="M50 1400h398l-38 -985h-322zM52 0v343h394v-343h-394z" />
<glyph unicode="&#x22;" horiz-adv-x="744" d="M50 1400h297l-35 -587h-227zM397 1400h297l-35 -587h-227z" />
<glyph unicode="#" horiz-adv-x="1174" d="M17 350v231h160l33 245h-136v231h168l48 343h303l-47 -343h181l47 343h303l-47 -343h126v-231h-158l-34 -245h136v-231h-168l-48 -350h-303l48 350h-181l-48 -350h-304l49 350h-128zM480 581h181l34 245h-181z" />
<glyph unicode="$" horiz-adv-x="1047" d="M34 434l335 38q5 -126 41.5 -177t129.5 -51q54 0 85 26.5t31 68.5q0 55 -41.5 102.5t-142.5 101.5l-138 75q-49 27 -84 49t-77.5 59t-68 77t-43.5 98t-17 126q1 158 78 255t225 129v214h354v-221q283 -78 276 -420l-314 -33q-1 109 -40.5 157.5t-121.5 48.5 q-53 0 -82.5 -23t-29.5 -60q0 -44 39 -87t143 -94l142 -72q53 -27 86.5 -46.5t78.5 -57t71 -77t45 -101t19 -135.5q0 -162 -80.5 -267.5t-231.5 -143.5v-208h-354v206q-320 75 -313 443z" />
<glyph unicode="%" horiz-adv-x="1568" d="M37 1042v63q0 157 86.5 239.5t249.5 82.5q164 0 250.5 -82.5t86.5 -239.5v-63q0 -155 -86.5 -237t-250.5 -82q-163 0 -249.5 82t-86.5 237zM214 0l833 1400h307l-834 -1400h-306zM319 999q0 -91 54 -91q56 0 56 91v151q0 92 -56 92q-54 0 -54 -92v-151zM857 297v63 q0 157 86.5 240t250.5 83t250.5 -83t86.5 -240v-63q0 -155 -86.5 -237t-250.5 -82t-250.5 82t-86.5 237zM1139 254q0 -91 55 -91t55 91v151q0 92 -55 92t-55 -92v-151z" />
<glyph unicode="&#x26;" horiz-adv-x="1147" d="M37 344q0 127 55 225t175 185q-144 184 -144 337q0 163 112.5 248.5t325.5 85.5q228 0 350 -83.5t123 -239.5q1 -116 -82 -203t-301 -211l122 -201q24 112 25 194l305 -53q-32 -248 -140 -410l147 -218h-314l-42 62q-133 -87 -322 -87q-193 0 -294 94t-101 275zM361 403 q0 -69 33.5 -109t93.5 -40q61 0 94 32l-153 254q-68 -60 -68 -137zM442 1060q0 -61 70 -158q97 47 140.5 86t43.5 81q0 94 -128 94q-64 0 -95 -24.5t-31 -78.5z" />
<glyph unicode="'" horiz-adv-x="397" d="M50 1400h297l-35 -587h-227z" />
<glyph unicode="(" horiz-adv-x="633" d="M41 625q0 243 60.5 456t173.5 369h358q-113 -156 -173.5 -369t-60.5 -456t60.5 -456t173.5 -369h-358q-113 156 -173.5 369t-60.5 456z" />
<glyph unicode=")" horiz-adv-x="634" d="M0 -200q113 155 174 368.5t61 456.5t-61 456.5t-174 368.5h358q113 -155 174 -368.5t61 -456.5t-61 -456.5t-174 -368.5h-358z" />
<glyph unicode="*" horiz-adv-x="836" d="M10 1007l82 252l228 -110l-34 251h265l-34 -251l228 110l81 -252l-249 -45l175 -182l-214 -156l-120 223l-119 -223l-215 156l175 182z" />
<glyph unicode="+" horiz-adv-x="971" d="M50 582v277h293v313h286v-313h292v-277h-292v-312h-286v312h-293z" />
<glyph unicode="," horiz-adv-x="494" d="M40 -158q97 9 141 44.5t44 113.5h-175v343h394v-276q0 -199 -92 -291t-280 -97z" />
<glyph unicode="-" horiz-adv-x="637" d="M50 405v282h537v-282h-537z" />
<glyph unicode="." horiz-adv-x="494" d="M50 0v343h394v-343h-394z" />
<glyph unicode="/" horiz-adv-x="720" d="M0 -200l374 1650h346l-375 -1650h-345z" />
<glyph unicode="0" horiz-adv-x="1087" d="M41 572v254q0 304 124.5 452.5t378.5 148.5t378 -148.5t124 -452.5v-254q0 -304 -124 -452t-378 -148t-378.5 148t-124.5 452zM405 489q0 -230 139 -230q138 0 138 230v421q0 230 -138 230q-139 0 -139 -230v-421z" />
<glyph unicode="1" horiz-adv-x="705" d="M17 915v238q100 6 151.5 15.5t88 37.5t48.5 71t18 123h319v-1400h-361v915h-264z" />
<glyph unicode="2" horiz-adv-x="958" d="M30 869q-4 205 45.5 328t150.5 176.5t265 53.5q217 0 324.5 -92t107.5 -289q0 -226 -101 -408.5t-311 -337.5l3 -13q73 7 160 7h234v-294h-868v249q267 207 395.5 396.5t128.5 380.5q0 116 -82 116q-61 0 -85.5 -62t-20.5 -234z" />
<glyph unicode="3" horiz-adv-x="1025" d="M23 494l366 28q-2 -150 28.5 -213.5t105.5 -63.5q100 0 100 128v90q0 126 -126 134l-78 5v236l78 5q116 8 116 121v75q0 58 -27 88t-75 30q-65 0 -93.5 -59t-26.5 -190l-349 24q-1 137 26.5 231.5t88.5 153t150.5 84.5t216.5 26q221 0 329.5 -90.5t108.5 -274.5v-36 q0 -233 -203 -287v-19q234 -56 234 -314v-44q0 -197 -115.5 -293t-351.5 -96q-268 0 -386 117.5t-117 403.5z" />
<glyph unicode="4" horiz-adv-x="1021" d="M19 243v215l354 942h517v-907h111v-250h-111v-243h-361v243h-510zM363 493h166v309q0 92 6 244l-22 2q-29 -145 -54 -233z" />
<glyph unicode="5" horiz-adv-x="1030" d="M36 410l359 27q6 -185 125 -185q110 0 110 136v127q0 71 -27 104t-83 33q-97 0 -122 -115l-350 19l19 844h886v-297h-539l-7 -236q91 44 213 44q374 0 374 -373v-151q0 -210 -115.5 -312t-352.5 -102q-257 0 -374 104.5t-116 332.5z" />
<glyph unicode="6" horiz-adv-x="1073" d="M40 559v252q0 313 125.5 465t382.5 152q226 0 343 -100.5t122 -322.5l-361 -35q-2 97 -31.5 134.5t-84.5 37.5q-137 0 -137 -243v-80q119 87 279 87q179 0 266.5 -101.5t87.5 -308.5v-82q0 -223 -120.5 -332t-367.5 -109q-255 0 -379.5 145t-124.5 441zM428 415 q0 -84 29.5 -119.5t93.5 -35.5t94 35.5t30 119.5v81q0 82 -30 117.5t-94 35.5t-93.5 -35.5t-29.5 -117.5v-81z" />
<glyph unicode="7" horiz-adv-x="870" d="M16 1104v297h838v-243q-136 -209 -199.5 -486.5t-62.5 -671.5h-364q10 389 74.5 654t193.5 450h-480z" />
<glyph unicode="8" horiz-adv-x="1064" d="M32 335v77q0 239 234 306v19q-201 64 -201 272v73q0 175 114 260t353 85t353 -85t114 -260v-73q0 -208 -201 -272v-19q234 -67 234 -306v-77q0 -184 -122 -273t-378 -89q-255 0 -377.5 89t-122.5 273zM402 359q0 -122 130 -122t130 122v109q0 121 -130 121t-130 -121 v-109zM412 956q0 -111 120 -111t120 111v94q0 113 -120 113t-120 -113v-94z" />
<glyph unicode="9" horiz-adv-x="1073" d="M41 904v82q0 223 120.5 332t367.5 109q254 0 378.5 -145t124.5 -441v-252q0 -313 -125 -465t-382 -152q-226 0 -343 100.5t-122 322.5l361 35q2 -97 31.5 -134.5t84.5 -37.5q137 0 137 243v80q-119 -87 -279 -87q-179 0 -266.5 101.5t-87.5 308.5zM398 904 q0 -82 30 -117.5t94 -35.5t93.5 35.5t29.5 117.5v81q0 84 -29.5 119.5t-93.5 35.5t-94 -35.5t-30 -119.5v-81z" />
<glyph unicode=":" horiz-adv-x="494" d="M50 0v343h394v-343h-394zM50 707v343h394v-343h-394z" />
<glyph unicode=";" horiz-adv-x="494" d="M40 -158q97 9 141 44.5t44 113.5h-175v343h394v-276q0 -199 -92 -291t-280 -97zM50 707v343h394v-343h-394z" />
<glyph unicode="&#x3c;" horiz-adv-x="856" d="M50 493v415l756 179v-306l-173 -27q-113 -18 -339 -44v-20q188 -20 339 -44l173 -26v-307z" />
<glyph unicode="=" horiz-adv-x="852" d="M50 369v294h752v-294h-752zM50 738v295h752v-295h-752z" />
<glyph unicode="&#x3e;" horiz-adv-x="856" d="M50 313v307l173 26q151 24 339 44v20q-226 26 -339 44l-173 27v306l756 -179v-415z" />
<glyph unicode="?" horiz-adv-x="988" d="M28 974q-3 230 118.5 341.5t369.5 111.5q444 0 444 -360q0 -102 -35.5 -179.5t-106.5 -151.5l-91 -91q-125 -129 -85 -219l-5 -11h-340q-94 196 95 385l90 88q64 62 86.5 98.5t22.5 76.5q0 42 -21.5 64.5t-61.5 22.5q-59 0 -85.5 -49t-25.5 -158zM275 0v343h394v-343 h-394z" />
<glyph unicode="@" horiz-adv-x="1743" d="M41 429v170q0 401 218 614.5t626 213.5q396 0 606.5 -206.5t210.5 -606.5v-156q0 -242 -97.5 -356.5t-296.5 -114.5q-140 0 -213.5 54t-87.5 168h-20q-25 -116 -92.5 -169t-184.5 -53q-129 0 -202 70.5t-73 198.5v7q0 50 11.5 92.5t29 73t46.5 57t56 43.5t65.5 33 t67 24.5t68.5 19.5l153 40v101q0 82 -58 82q-36 0 -52.5 -38.5t-15.5 -139.5l-356 18q-3 201 103 304.5t325 103.5q200 0 306 -84.5t106 -248.5v-463q0 -71 43 -71q72 0 72 236v153q0 294 -129 437.5t-391 143.5q-275 0 -411 -143.5t-136 -437.5v-170q0 -284 139 -425 t422 -141q231 0 471 70l55 -241q-227 -84 -536 -84q-411 0 -629.5 212t-218.5 609zM790 310q0 -71 56 -71q41 0 63.5 38.5t22.5 104.5v69l-50 -17q-40 -14 -66 -43t-26 -69v-12z" />
<glyph unicode="A" horiz-adv-x="1135" d="M5 0l322 1400h474l329 -1400h-384l-28 168h-336l-28 -168h-349zM436 427h229l-61 309q-35 239 -44 338h-20q-8 -117 -41 -337z" />
<glyph unicode="B" horiz-adv-x="1078" d="M63 0v1400h572q199 0 295 -79.5t96 -244.5v-58q0 -117 -50 -184.5t-151 -93.5v-21q118 -30 176.5 -104.5t58.5 -201.5v-62q0 -178 -100.5 -264.5t-307.5 -86.5h-589zM426 285h140q58 0 85 28t27 88v88q0 57 -27 84t-85 27h-140v-315zM426 839h132q56 0 83 24t27 76v74 q0 53 -27 78t-83 25h-132v-277z" />
<glyph unicode="C" horiz-adv-x="1081" d="M41 573v254q0 304 122.5 452t377.5 148q249 0 373 -132t126 -420l-346 -49q0 176 -34.5 246t-111.5 70q-140 0 -140 -229v-424q0 -230 140 -230q71 0 107.5 76.5t38.5 264.5l352 -72q-5 -289 -133 -422.5t-372 -133.5q-257 0 -378.5 147.5t-121.5 453.5z" />
<glyph unicode="D" horiz-adv-x="1094" d="M63 0v1400h480q260 0 385.5 -144.5t125.5 -443.5v-226q0 -298 -125.5 -442t-385.5 -144h-480zM426 287h97q83 0 123.5 46t40.5 141v452q0 95 -40.5 141t-123.5 46h-97v-826z" />
<glyph unicode="E" horiz-adv-x="913" d="M63 0v1400h798v-297h-435v-263h399v-257h-399v-286h453v-297h-816z" />
<glyph unicode="F" horiz-adv-x="871" d="M63 0v1400h778v-297h-415v-252h379v-272h-379v-579h-363z" />
<glyph unicode="G" horiz-adv-x="1103" d="M41 573v254q0 305 126 452.5t388 147.5q243 0 364 -114t127 -355l-345 -48q-2 131 -36.5 181.5t-103.5 50.5q-153 0 -153 -244v-378q0 -251 148 -251q69 0 107 58t49 210h-175v265h518v-802h-306q-1 12 -1 26q0 89 51 238l-23 8q-60 -153 -137 -221t-210 -68 q-388 0 -388 590z" />
<glyph unicode="H" horiz-adv-x="1113" d="M63 0v1400h363v-528h261v528h363v-1400h-363v577h-261v-577h-363z" />
<glyph unicode="I" horiz-adv-x="489" d="M63 0v1400h363v-1400h-363z" />
<glyph unicode="J" horiz-adv-x="969" d="M22 497l362 40q0 -161 20.5 -223.5t70.5 -62.5q37 0 54 28.5t17 91.5v1029h363v-1064q0 -176 -112.5 -269.5t-324.5 -93.5q-225 0 -337.5 123.5t-112.5 400.5z" />
<glyph unicode="K" horiz-adv-x="1074" d="M63 0v1400h363v-203q0 -179 -35 -372l20 -7l273 582h371l-289 -548l303 -852h-393l-160 554l-90 -157v-397h-363z" />
<glyph unicode="L" horiz-adv-x="863" d="M63 0v1400h363v-1103h399v-297h-762z" />
<glyph unicode="M" horiz-adv-x="1490" d="M63 0v1400h451l127 -375q66 -270 96 -498h20q32 225 96 498l121 375h453v-1400h-352l2 525q0 156 12 325l-20 3l-200 -853h-252l-197 853l-21 -3q13 -182 13 -325v-525h-349z" />
<glyph unicode="N" horiz-adv-x="1189" d="M63 0v1400h401l223 -577q46 -118 89 -279l20 3q-22 261 -22 396v457h352v-1400h-402l-213 545q-59 165 -98 325l-21 -4q23 -249 23 -441v-425h-352z" />
<glyph unicode="O" horiz-adv-x="1121" d="M41 565v254q0 316 127 462t393 146q265 0 392.5 -146t127.5 -462v-254q0 -308 -127.5 -450.5t-392.5 -142.5q-266 0 -393 142.5t-127 450.5zM408 482q0 -223 153 -223t153 223v421q0 237 -153 237t-153 -237v-421z" />
<glyph unicode="P" horiz-adv-x="1043" d="M63 0v1400h518q220 0 327.5 -101t107.5 -307v-105q0 -204 -107.5 -304t-327.5 -100h-155v-483h-363zM426 763h125q113 0 113 113v127q0 117 -113 117h-125v-357z" />
<glyph unicode="Q" horiz-adv-x="1121" d="M41 565v254q0 316 127 462t393 146q265 0 392.5 -146t127.5 -462v-254q0 -282 -106.5 -425t-326.5 -164q2 -53 101 -59l178 -12l-51 -274q-256 7 -354 92q-71 62 -71 168q0 40 10 86q-214 25 -317 167.5t-103 420.5zM408 482q0 -223 153 -223t153 223v421q0 237 -153 237 t-153 -237v-421z" />
<glyph unicode="R" horiz-adv-x="1093" d="M63 0v1400h542q209 0 317 -92t108 -268v-44q0 -125 -61 -202t-177 -97v-19q96 -28 134 -78.5t56 -173.5l24 -162q18 -116 35.5 -163.5t46.5 -72.5l-4 -28h-388q-19 32 -29.5 85.5t-21.5 160.5l-13 135q-11 103 -36.5 139t-90.5 36h-79v-556h-363zM426 828h145 q51 0 75.5 26t24.5 81v71q0 55 -24.5 81t-75.5 26h-145v-285z" />
<glyph unicode="S" horiz-adv-x="1047" d="M34 434l335 38q5 -126 41.5 -177t129.5 -51q54 0 85 26.5t31 68.5q0 55 -41.5 102.5t-142.5 101.5l-138 75q-49 27 -84 49t-77.5 59t-68 77t-43.5 98q-17 55 -17 119v7q1 197 119.5 298.5t342.5 101.5q240 -1 358 -111q114 -106 113 -314v-18l-314 -33 q-1 109 -40.5 157.5t-121.5 48.5q-53 0 -82.5 -23t-29.5 -60q0 -44 39 -87t143 -94l142 -72q53 -27 86.5 -46.5t78.5 -57t71 -77t45 -101t19 -135.5q0 -206 -128 -318.5t-362 -112.5q-243 -1 -368 115q-121 112 -121 332v14z" />
<glyph unicode="T" horiz-adv-x="955" d="M11 1103v297h933v-297h-285v-1103h-363v1103h-285z" />
<glyph unicode="U" horiz-adv-x="1112" d="M59 380v1020h364v-999q0 -73 34.5 -111.5t99.5 -38.5q64 0 98.5 38.5t34.5 111.5v999h363v-1020q0 -198 -127.5 -302.5t-368.5 -104.5q-242 0 -370 104.5t-128 302.5z" />
<glyph unicode="V" horiz-adv-x="1100" d="M5 1400h388l124 -634q25 -167 36 -363h21q14 193 39 363l121 634h361l-319 -1400h-442z" />
<glyph unicode="W" horiz-adv-x="1518" d="M9 1400h365l74 -602q23 -183 31 -395h20q11 180 34 395l69 602h329l75 -602q24 -190 33 -395h22q11 215 31 395l66 602h352l-223 -1400h-432l-40 339q-29 240 -44 487h-21q-14 -219 -45 -487l-38 -339h-425z" />
<glyph unicode="X" horiz-adv-x="1084" d="M6 0l296 700l-282 700h401l79 -230q25 -78 41 -162h20q14 74 40 164l75 228h385l-289 -655l307 -745h-408l-94 297q-25 85 -37 146h-20q-9 -55 -35 -146l-92 -297h-387z" />
<glyph unicode="Y" horiz-adv-x="1058" d="M5 1400h380l91 -279q28 -95 52 -234h21q23 133 50 233l85 280h369l-342 -900v-500h-363v500z" />
<glyph unicode="Z" horiz-adv-x="909" d="M9 13l330 922q40 103 75 162l-7 13q-78 -5 -138 -5h-238v295h850l5 -13l-292 -897q-48 -123 -85 -188l7 -12q87 5 161 5h223v-295h-886z" />
<glyph unicode="[" horiz-adv-x="619" d="M63 -200v1650h546v-295h-188v-1060h188v-295h-546z" />
<glyph unicode="\" horiz-adv-x="720" d="M0 1450h346l374 -1650h-345z" />
<glyph unicode="]" horiz-adv-x="619" d="M10 95h188v1060h-188v295h546v-1650h-546v295z" />
<glyph unicode="^" horiz-adv-x="1061" d="M63 793l303 607h329l303 -607h-349l-40 94q-40 95 -67 193h-22q-35 -113 -68 -193l-40 -94h-349z" />
<glyph unicode="_" horiz-adv-x="602" d="M0 -53h602v-238h-602v238z" />
<glyph unicode="`" horiz-adv-x="445" d="M0 1400h329l116 -272h-255z" />
<glyph unicode="a" horiz-adv-x="961" d="M19 250v7q0 51 12 94.5t30 74.5t47.5 58t57 44.5t66.5 33.5t67.5 24.5t68.5 19.5l153 40v101q0 82 -58 82q-37 -1 -53 -39q-16 -36 -15 -128v-11l-356 18v11q0 194 103 294q106 104 325 103q200 0 306 -84.5t106 -248.5v-469q0 -32 10.5 -44.5t35.5 -12.5h28l-36 -240 q-30 -5 -60 -5q-157 1 -215 53q-48 43 -48 135q0 21 2 44l-20 4q-26 -119 -96.5 -177.5t-195.5 -58.5q-124 0 -194.5 74.5t-70.5 202.5zM379 310q0 -71 56 -71q41 0 63.5 38.5t22.5 104.5v69l-50 -17q-40 -12 -66 -41.5t-26 -70.5v-12z" />
<glyph unicode="b" d="M52 0v1400h358v-247q0 -147 -54 -303l20 -10q46 112 114.5 168t176.5 56q270 0 270 -415v-248q0 -415 -272 -415q-112 0 -180.5 55.5t-111.5 167.5l-21 -9q47 -138 49 -200h-349zM410 413q0 -186 89 -186q80 0 80 153v288q0 155 -80 155q-89 0 -89 -189v-221z" />
<glyph unicode="c" horiz-adv-x="960" d="M37 444v162q0 239 106.5 355t329.5 116q221 0 332.5 -105.5t112.5 -331.5l-358 -25q-1 119 -20.5 166.5t-59.5 47.5q-77 0 -77 -152v-305q0 -151 79 -151q80 0 80 162v66l365 -27q-4 -231 -119.5 -340t-334.5 -109q-223 0 -329.5 116t-106.5 355z" />
<glyph unicode="d" d="M37 401v248q0 415 270 415q108 0 176.5 -56t114.5 -168l20 10q-54 156 -54 303v247h358v-1400h-349q2 62 49 200l-21 9q-43 -112 -111.5 -167.5t-180.5 -55.5q-272 0 -272 415zM395 380q0 -153 80 -153q89 0 89 186v221q0 189 -89 189q-80 0 -80 -155v-288z" />
<glyph unicode="e" horiz-adv-x="964" d="M37 439v165q0 230 116 351.5t337 121.5q213 0 325 -115.5t112 -330.5q0 -109 -7 -193h-530v-84q0 -134 96 -134q45 0 68 35t24 122h1l338 -29q-7 -186 -121.5 -280.5t-315.5 -94.5q-215 0 -329 119.5t-114 346.5zM390 639h178v69q0 121 -87 121q-91 0 -91 -150v-40z" />
<glyph unicode="f" horiz-adv-x="649" d="M24 793v257h103v62q0 91 22.5 148.5t79.5 94.5t144 53t226 19l29 -247l-71 -6q-51 -4 -69 -22t-18 -59v-43h155v-257h-140v-793h-358v793h-103z" />
<glyph unicode="g" horiz-adv-x="940" d="M0 -144q0 84 43 130.5t145 62.5v24q-163 59 -163 187q0 144 178 175v20q-155 84 -155 282q0 165 108.5 251.5t314.5 86.5q81 0 143 -13q-23 64 -23 117q0 70 39 120q68 89 247 99l25 -292l-99 -8q-67 -6 -87.5 -19t-16.5 -42q193 -78 193 -300q0 -165 -108.5 -251.5 t-312.5 -86.5q-89 0 -163 17q-27 -10 -27 -31q0 -23 31.5 -38.5t135.5 -33.5l147 -27q57 -10 94.5 -19.5t89.5 -33.5t83.5 -56t54.5 -89t23 -132q0 -172 -122 -252.5t-374 -80.5q-224 0 -334 57t-110 176zM244 -48q0 -50 49.5 -69.5t172.5 -19.5q103 0 143 13.5t40 50.5 q0 35 -35 54t-144 36l-150 24l-11 2q-65 -34 -65 -91zM401 737q0 -73 17 -105.5t53 -32.5t52 32t16 106t-16.5 106t-52.5 32t-52.5 -32.5t-16.5 -105.5z" />
<glyph unicode="h" horiz-adv-x="969" d="M52 0v1400h358v-272q0 -132 -59 -278l19 -9q104 223 312 223q121 0 180 -61.5t59 -186.5v-816h-358v731q0 84 -59 84q-94 0 -94 -210v-605h-358z" />
<glyph unicode="i" horiz-adv-x="462" d="M52 0v1050h358v-1050h-358zM52 1131v252h358v-252h-358z" />
<glyph unicode="j" horiz-adv-x="462" d="M-108 -80l63 6q54 5 75.5 27t21.5 71v1026h358v-1010q0 -219 -121 -321q-113 -95 -332 -95h-30zM52 1130v253h358v-253h-358z" />
<glyph unicode="k" horiz-adv-x="948" d="M52 0v1400h358v-287q0 -225 -47 -432l19 -8l185 377h367l-209 -369l223 -681h-359l-110 443l-69 -113v-330h-358z" />
<glyph unicode="l" horiz-adv-x="462" d="M52 0v1400h358v-1400h-358z" />
<glyph unicode="m" horiz-adv-x="1450" d="M52 0v1050h346q1 -9 1 -18q0 -30 -8 -64q-10 -44 -40 -119l17 -10q75 124 144 174.5t162 50.5q100 0 144 -62q28 -40 28 -99q0 -32 -8 -69l18 -8q58 122 134 180t185 58q115 0 171 -65t56 -199v-800h-358v731q0 40 -14.5 62t-40.5 22q-40 0 -61.5 -50t-21.5 -144v-621 h-358v731q0 40 -14.5 62t-40.5 22q-40 0 -61.5 -50t-21.5 -144v-621h-358z" />
<glyph unicode="n" horiz-adv-x="969" d="M52 0v1050h345q0 -49 -9.5 -91t-36.5 -109l19 -9q104 223 312 223q121 0 180 -61.5t59 -187.5v-815h-358v732q0 83 -59 83q-46 0 -70 -54.5t-24 -155.5v-605h-358z" />
<glyph unicode="o" d="M37 440v165q0 228 115.5 350t333.5 122q219 0 335 -122t116 -350v-165q0 -225 -116.5 -346t-334.5 -121t-333.5 121t-115.5 346zM403 373q0 -151 83 -151q85 0 85 151v302q0 153 -85 153q-83 0 -83 -153v-302z" />
<glyph unicode="p" d="M52 -350v1400h349q-2 -62 -49 -200l21 -9q43 112 111.5 167.5t180.5 55.5q272 0 272 -415v-248q0 -415 -270 -415q-108 0 -176.5 56t-114.5 168l-20 -10q54 -156 54 -303v-247h-358zM410 416q0 -189 89 -189q80 0 80 155v288q0 153 -80 153q-89 0 -89 -186v-221z" />
<glyph unicode="q" d="M37 401v248q0 415 272 415q112 0 180.5 -55.5t111.5 -167.5l21 9q-47 138 -49 200h349v-1400h-358v247q0 147 54 303l-20 10q-46 -112 -114.5 -168t-176.5 -56q-270 0 -270 415zM395 382q0 -155 80 -155q89 0 89 189v221q0 186 -89 186q-80 0 -80 -153v-288z" />
<glyph unicode="r" horiz-adv-x="725" d="M52 0v1050h349q1 -12 1 -23q0 -38 -8 -72q-10 -45 -40 -110l17 -11q74 134 138 184.5t171 66.5l33 -327l-92 -10q-63 -8 -100 -22t-64 -48t-37 -91t-10 -150v-437h-358z" />
<glyph unicode="s" horiz-adv-x="889" d="M24 301l341 45v-7q0 -139 81 -139q56 0 56 51q0 40 -33.5 74.5t-115.5 78.5l-108 58q-212 116 -212 292q0 154 103.5 237t298.5 83q406 0 406 -309l-332 -41v14q0 57 -15 84q-17 31 -57 31q-58 0 -58 -50q0 -36 30.5 -65.5t111.5 -69.5l108 -53q40 -20 67 -36t62.5 -45 t56.5 -60t36 -78.5t15 -103.5q0 -154 -108.5 -235t-314.5 -81q-208 0 -314 80.5t-105 244.5z" />
<glyph unicode="t" horiz-adv-x="698" d="M24 793v257h110v205l358 100v-305h179v-257h-179v-466q0 -75 73 -75q49 0 113 18l-22 -251q-100 -43 -220 -43q-302 0 -302 310v507h-110z" />
<glyph unicode="u" horiz-adv-x="970" d="M48 235v815h358v-732q0 -83 59 -83q94 0 94 210v605h358v-1050h-345q1 89 47 200l-19 9q-53 -113 -130 -168t-183 -55q-121 0 -180 61.5t-59 187.5z" />
<glyph unicode="v" horiz-adv-x="913" d="M0 1050h367l57 -371q22 -149 32 -302h21q10 147 32 302l53 371h351l-250 -1050h-412z" />
<glyph unicode="w" horiz-adv-x="1426" d="M0 1050h365l67 -471q14 -97 19 -203h20q6 100 19 203l65 471h330l74 -471q12 -76 20 -203h20q5 99 16 203l60 471h351l-229 -1050h-408l-38 319q-17 147 -30 308h-18q-11 -175 -27 -308l-37 -319h-408z" />
<glyph unicode="x" horiz-adv-x="986" d="M1 0l278 528l-264 522h396l49 -153q21 -65 29 -106h17q11 50 30 106l53 153h378l-270 -492l289 -558h-403l-61 190q-19 61 -29 104h-17q-13 -58 -29 -104l-65 -190h-381z" />
<glyph unicode="y" horiz-adv-x="908" d="M1 1050h367l53 -439q22 -156 35 -360h20q15 223 32 360l50 439h350l-207 -959q-60 -252 -209 -363q-141 -104 -402 -104h-29l-30 282l91 7q114 9 121 82l4 42z" />
<glyph unicode="z" horiz-adv-x="843" d="M15 15l258 655q25 57 56 112l-7 13q-80 -2 -124 -2h-153v257h769l6 -15l-256 -664q-26 -59 -54 -103l8 -13q84 4 140 4h170v-259h-806z" />
<glyph unicode="{" horiz-adv-x="678" d="M30 490v270q115 27 115 160v215q0 159 76 237t231 78h216v-295h-60q-105 0 -105 -107v-220q0 -158 -125 -193v-20q125 -35 125 -193v-220q0 -107 105 -107h60v-295h-211q-157 0 -234.5 78t-77.5 237v215q0 133 -115 160z" />
<glyph unicode="|" horiz-adv-x="461" d="M63 -200v1650h335v-1650h-335z" />
<glyph unicode="}" horiz-adv-x="678" d="M10 95h60q105 0 105 107v220q0 158 125 193v20q-125 35 -125 193v220q0 107 -105 107h-60v295h216q155 0 231 -78t76 -237v-215q0 -133 115 -160v-270q-115 -27 -115 -160v-215q0 -159 -77.5 -237t-234.5 -78h-211v295z" />
<glyph unicode="~" horiz-adv-x="891" d="M50 526q8 179 67 266.5t172 87.5q50 0 107.5 -19t103.5 -37.5t69 -18.5q44 0 50 69h223q-19 -354 -225 -354q-65 0 -165.5 37.5t-122.5 37.5q-50 0 -56 -69h-223z" />
<glyph unicode="&#xa1;" horiz-adv-x="498" d="M50 -350l38 985h322l38 -985h-398zM52 707v343h394v-343h-394z" />
<glyph unicode="&#xa2;" horiz-adv-x="960" d="M37 444v162q0 374 267 450v209h354v-211q129 -38 194 -139.5t66 -274.5l-358 -25q-1 119 -20.5 166.5t-59.5 47.5q-77 0 -77 -152v-305q0 -151 79 -151q80 0 80 162v66l365 -27q-7 -345 -269 -425v-212h-354v209q-267 76 -267 450z" />
<glyph unicode="&#xa3;" horiz-adv-x="1075" d="M20 0v232q71 32 100 94.5t29 171.5v60h-123v249h123v225q0 395 466 395q219 0 321 -108t99 -337l-315 -33q3 111 -24 159.5t-91 48.5q-107 0 -107 -130v-220h474v-249h-474v-52q0 -65 -13.5 -110t-46.5 -92l5 -13q84 3 140 3h469v-294h-1032z" />
<glyph unicode="&#xa4;" horiz-adv-x="1081" d="M17 372l173 172q-30 74 -30 156t30 156l-173 172l196 195l172 -172q74 30 155 30q82 0 156 -30l172 172l195 -195l-172 -172q30 -74 30 -156t-30 -156l172 -172l-195 -195l-172 172q-74 -30 -156 -30q-81 0 -155 30l-172 -172zM427 700q0 -49 32 -81t81 -32q50 0 82 32 t32 81t-32 81t-82 32q-49 0 -81 -32t-32 -81z" />
<glyph unicode="&#xa5;" horiz-adv-x="1058" d="M5 1400h380l91 -279q28 -95 52 -234h21q23 133 50 233l85 280h369l-290 -762h178v-204h-230v-70h230v-205h-230v-159h-363v159h-230v205h230v70h-230v204h177z" />
<glyph unicode="&#xa6;" horiz-adv-x="461" d="M63 -200v745h335v-745h-335zM63 705v745h335v-745h-335z" />
<glyph unicode="&#xa7;" horiz-adv-x="1052" d="M34 328l347 14q-1 -76 37 -112t119 -36q102 0 102 65q0 39 -34 63t-143 57l-150 45q-126 37 -196 97.5t-70 162.5q0 155 157 192v18q-76 53 -109.5 108t-33.5 131q0 149 112.5 221.5t344.5 72.5q242 0 359 -79.5t116 -244.5l-312 -19q1 65 -40 95.5t-127 30.5 q-104 0 -104 -63q0 -20 10 -33.5t49 -31.5t116 -41l160 -47q132 -39 203.5 -100.5t71.5 -166.5q0 -154 -156 -193v-18q82 -50 119 -106t37 -131q0 -306 -493 -306q-251 0 -372 87.5t-120 267.5zM404 740q0 -27 13.5 -42t56.5 -29.5t136 -34.5q38 18 38 60q0 24 -14 39 t-58 30.5t-135 36.5q-37 -22 -37 -60z" />
<glyph unicode="&#xa8;" horiz-adv-x="669" d="M0 1131v252h297v-252h-297zM372 1131v252h297v-252h-297z" />
<glyph unicode="&#xa9;" horiz-adv-x="1773" d="M41 435v171q0 396 219 608.5t627 212.5q407 0 626 -212.5t219 -608.5v-171q0 -391 -219 -601.5t-626 -210.5q-408 0 -627 210t-219 602zM338 435q0 -272 142 -418.5t407 -146.5q264 0 406 146.5t142 418.5v171q0 277 -142 425.5t-406 148.5q-265 0 -407 -148.5 t-142 -425.5v-171zM441 444v162q0 239 106.5 355t329.5 116q221 0 332.5 -105.5t112.5 -331.5l-358 -25q-1 119 -20.5 166.5t-59.5 47.5q-77 0 -77 -152v-305q0 -151 79 -151q80 0 80 162v66l365 -27q-4 -231 -119.5 -340t-334.5 -109q-223 0 -329.5 116t-106.5 355z" />
<glyph unicode="&#xab;" horiz-adv-x="1045" d="M37 525l258 425h304l-249 -425l249 -425h-306zM446 525l258 425h304l-248 -425l248 -425h-306z" />
<glyph unicode="&#xac;" horiz-adv-x="852" d="M50 663v294h752v-574h-312v280h-440z" />
<glyph unicode="&#xad;" horiz-adv-x="637" d="M50 405v282h537v-282h-537z" />
<glyph unicode="&#xae;" horiz-adv-x="1125" d="M41 809v93q0 224 145.5 366t376.5 142q230 0 375.5 -142t145.5 -366v-93q0 -225 -145.5 -366.5t-375.5 -141.5q-231 0 -376.5 141.5t-145.5 366.5zM239 809q0 -151 86.5 -238t237.5 -87q150 0 236.5 87t86.5 238v93q0 151 -86.5 237.5t-236.5 86.5q-151 0 -237.5 -86.5 t-86.5 -237.5v-93zM356 592v539h253q174 0 174 -138v-17q0 -94 -95 -109v-13q39 -11 54.5 -31t22.5 -66l8 -63q9 -72 22 -86l-7 -16h-174q-12 24 -19 95l-5 52q-4 37 -12 48.5t-26 11.5h-15v-207h-181zM537 921h30q40 0 40 33v9q0 33 -40 33h-30v-75z" />
<glyph unicode="&#xaf;" horiz-adv-x="559" d="M0 1147v218h559v-218h-559z" />
<glyph unicode="&#xb0;" horiz-adv-x="771" d="M37 1029v52q0 151 96.5 245t251.5 94t252 -94t97 -245v-52q0 -151 -97 -244.5t-252 -93.5t-251.5 93.5t-96.5 244.5zM288 1027q0 -44 27 -72t70 -28t70.5 28t27.5 72v57q0 44 -27.5 72t-70.5 28t-70 -28t-27 -72v-57z" />
<glyph unicode="&#xb1;" horiz-adv-x="971" d="M50 198v277h871v-277h-871zM50 769v277h293v228h286v-228h292v-277h-292v-227h-286v227h-293z" />
<glyph unicode="&#xb4;" horiz-adv-x="445" d="M0 1128l115 272h330l-190 -272h-255z" />
<glyph unicode="&#xb6;" horiz-adv-x="1575" d="M41 920q0 223 145.5 351.5t411.5 128.5h937v-297h-155v-1453h-321v1453h-192v-1453h-321l-1 788q-231 0 -367.5 130.5t-136.5 351.5z" />
<glyph unicode="&#xb7;" horiz-adv-x="494" d="M50 364v343h394v-343h-394z" />
<glyph unicode="&#xb8;" horiz-adv-x="369" d="M0 -334l28 158q54 -32 111 -32q54 0 54 32q0 46 -156 52l22 134h181l-11 -79q140 -32 140 -144q0 -78 -53.5 -120t-150.5 -42q-81 0 -165 41z" />
<glyph unicode="&#xbb;" horiz-adv-x="1045" d="M37 100l248 425l-248 425h304l258 -425l-256 -425h-306zM446 100l249 425l-249 425h304l258 -425l-256 -425h-306z" />
<glyph unicode="&#xbc;" horiz-adv-x="1952" d="M45 521v214h212v344h-194v180q95 5 139.5 17t64.5 39t26 84h244v-664h166v-214h-658zM564 0l598 1400h283l-599 -1400h-282zM1220 119v164l209 595h414v-573h64v-186h-64v-119h-282v119h-341zM1472 305h89v155q0 60 6 184h-18q-13 -85 -33 -174z" />
<glyph unicode="&#xbd;" horiz-adv-x="1994" d="M45 521v214h212v344h-194v180q95 5 139.5 17t64.5 39t26 84h244v-664h166v-214h-658zM564 0l598 1400h283l-599 -1400h-282zM1295 544q-5 188 72.5 270t266.5 82q311 0 311 -244q0 -136 -68 -238t-214 -195l4 -10q47 6 96 6h172v-215h-639v180q196 146 282 250t86 209 q0 51 -43 51q-31 0 -42.5 -36.5t-9.5 -124.5z" />
<glyph unicode="&#xbe;" horiz-adv-x="1937" d="M36 825l282 19q-1 -82 14.5 -115.5t47.5 -33.5q46 0 46 63v49q0 68 -70 73l-44 3v172l45 3q64 3 64 63v36q0 64 -48 64q-30 0 -43 -29t-12 -97l-274 17q-2 156 79 229.5t252 73.5q322 0 322 -235v-21q0 -145 -127 -178v-12q72 -18 107.5 -66t35.5 -135v-31 q0 -114 -87 -175t-253 -61q-176 0 -257.5 77.5t-79.5 246.5zM549 0l598 1400h283l-599 -1400h-282zM1205 119v164l209 595h414v-573h64v-186h-64v-119h-282v119h-341zM1457 305h89v155q0 60 6 184h-18q-13 -85 -33 -174z" />
<glyph unicode="&#xbf;" horiz-adv-x="988" d="M28 -17q0 102 35.5 179.5t106.5 151.5l90 91q126 131 85 219l5 11h340q95 -196 -94 -385l-90 -88q-65 -63 -87.5 -99t-22.5 -76q0 -42 21.5 -64.5t61.5 -22.5q60 0 86 48.5t25 158.5l369 -31q4 -230 -117.5 -341.5t-369.5 -111.5q-444 0 -444 360zM318 707v343h394v-343 h-394z" />
<glyph unicode="&#xc0;" horiz-adv-x="1135" d="M5 0l322 1400h474l329 -1400h-384l-28 168h-336l-28 -168h-349zM274 1681h329l101 -202h-260zM436 427h229l-61 309q-35 239 -44 338h-20q-8 -117 -41 -337z" />
<glyph unicode="&#xc1;" horiz-adv-x="1135" d="M5 0l322 1400h474l329 -1400h-384l-28 168h-336l-28 -168h-349zM432 1479l100 202h330l-170 -202h-260zM436 427h229l-61 309q-35 239 -44 338h-20q-8 -117 -41 -337z" />
<glyph unicode="&#xc2;" horiz-adv-x="1135" d="M5 0l322 1400h474l329 -1400h-384l-28 168h-336l-28 -168h-349zM219 1478l191 203h317l190 -203h-262l-87 72l-87 -72h-262zM436 427h229l-61 309q-35 239 -44 338h-20q-8 -117 -41 -337z" />
<glyph unicode="&#xc3;" horiz-adv-x="1135" d="M5 0l322 1400h474l329 -1400h-384l-28 168h-336l-28 -168h-349zM231 1480q6 120 62.5 181t153.5 61q52 0 101 -15t83.5 -30t51.5 -15q19 0 28.5 12.5t13.5 40.5h178q-6 -120 -58.5 -180.5t-143.5 -60.5q-51 0 -102.5 15t-88.5 30t-53 15q-41 0 -48 -54h-178zM436 427h229 l-61 309q-35 239 -44 338h-20q-8 -117 -41 -337z" />
<glyph unicode="&#xc4;" horiz-adv-x="1135" d="M5 0l322 1400h474l329 -1400h-384l-28 168h-336l-28 -168h-349zM233 1480v252h297v-252h-297zM436 427h229l-61 309q-35 239 -44 338h-20q-8 -117 -41 -337zM605 1480v252h297v-252h-297z" />
<glyph unicode="&#xc5;" horiz-adv-x="1135" d="M5 0l322 1400h474l329 -1400h-384l-28 168h-336l-28 -168h-349zM327 1625q0 84 63.5 130.5t177.5 46.5q115 0 178.5 -47t63.5 -130q0 -84 -63.5 -131t-178.5 -47t-178 47t-63 131zM436 427h229l-61 309q-35 239 -44 338h-20q-8 -117 -41 -337zM515 1625q0 -45 53 -45 t53 45t-53 45t-53 -45z" />
<glyph unicode="&#xc6;" horiz-adv-x="1445" d="M5 0l382 1400h1006v-297h-397v-263h361v-257h-361v-286h415v-297h-779v167h-238l-40 -167h-349zM466 431h166v686h-23q-19 -147 -44 -262z" />
<glyph unicode="&#xc7;" horiz-adv-x="1081" d="M41 573v254q0 304 122.5 452t377.5 148q249 0 373 -132t126 -420l-346 -49q0 176 -34.5 246t-111.5 70q-140 0 -140 -229v-424q0 -230 140 -230q71 0 107.5 76.5t38.5 264.5l352 -72q-4 -260 -108.5 -393.5t-303.5 -157.5l-6 -46q140 -32 140 -144q0 -78 -53.5 -120 t-150.5 -42q-81 0 -165 41l28 158q54 -32 111 -32q54 0 54 32q0 46 -156 52l17 101q-211 24 -311.5 171t-100.5 425z" />
<glyph unicode="&#xc8;" horiz-adv-x="913" d="M63 0v1400h798v-297h-435v-263h399v-257h-399v-286h453v-297h-816zM170 1681h329l101 -202h-260z" />
<glyph unicode="&#xc9;" horiz-adv-x="913" d="M63 0v1400h798v-297h-435v-263h399v-257h-399v-286h453v-297h-816zM328 1479l100 202h330l-170 -202h-260z" />
<glyph unicode="&#xca;" horiz-adv-x="913" d="M63 0v1400h798v-297h-435v-263h399v-257h-399v-286h453v-297h-816zM115 1478l191 203h317l190 -203h-262l-87 72l-87 -72h-262z" />
<glyph unicode="&#xcb;" horiz-adv-x="913" d="M63 0v1400h798v-297h-435v-263h399v-257h-399v-286h453v-297h-816zM129 1480v252h297v-252h-297zM501 1480v252h297v-252h-297z" />
<glyph unicode="&#xcc;" horiz-adv-x="489" d="M-49 1681h329l101 -202h-260zM63 0v1400h363v-1400h-363z" />
<glyph unicode="&#xcd;" horiz-adv-x="489" d="M63 0v1400h363v-1400h-363zM109 1479l100 202h330l-170 -202h-260z" />
<glyph unicode="&#xce;" horiz-adv-x="489" d="M8 1478l102 203h272l102 -203h-182l-56 74l-56 -74h-182zM63 0v1400h363v-1400h-363z" />
<glyph unicode="&#xcf;" horiz-adv-x="489" d="M15 1473v264h203v-264h-203zM63 0v1400h363v-1400h-363zM273 1473v264h202v-264h-202z" />
<glyph unicode="&#xd0;" horiz-adv-x="1094" d="M3 595v250h60v555h480q260 0 385.5 -144.5t125.5 -443.5v-226q0 -298 -125.5 -442t-385.5 -144h-480v595h-60zM426 287h97q83 0 123.5 46t40.5 141v452q0 95 -40.5 141t-123.5 46h-97v-268h144v-250h-144v-308z" />
<glyph unicode="&#xd1;" horiz-adv-x="1189" d="M63 0v1400h401l223 -577q46 -118 89 -279l20 3q-22 261 -22 396v457h352v-1400h-402l-213 545q-59 165 -98 325l-21 -4q23 -249 23 -441v-425h-352zM257 1480q6 120 62.5 181t153.5 61q52 0 101 -15t83.5 -30t51.5 -15q19 0 28.5 12.5t13.5 40.5h178 q-6 -120 -58.5 -180.5t-143.5 -60.5q-51 0 -102.5 15t-88.5 30t-53 15q-41 0 -48 -54h-178z" />
<glyph unicode="&#xd2;" horiz-adv-x="1121" d="M41 565v254q0 316 127 462t393 146q265 0 392.5 -146t127.5 -462v-254q0 -308 -127.5 -450.5t-392.5 -142.5q-266 0 -393 142.5t-127 450.5zM267 1681h329l101 -202h-260zM408 482q0 -223 153 -223t153 223v421q0 237 -153 237t-153 -237v-421z" />
<glyph unicode="&#xd3;" horiz-adv-x="1121" d="M41 565v254q0 316 127 462t393 146q265 0 392.5 -146t127.5 -462v-254q0 -308 -127.5 -450.5t-392.5 -142.5q-266 0 -393 142.5t-127 450.5zM408 482q0 -223 153 -223t153 223v421q0 237 -153 237t-153 -237v-421zM425 1479l100 202h330l-170 -202h-260z" />
<glyph unicode="&#xd4;" horiz-adv-x="1121" d="M41 565v254q0 316 127 462t393 146q265 0 392.5 -146t127.5 -462v-254q0 -308 -127.5 -450.5t-392.5 -142.5q-266 0 -393 142.5t-127 450.5zM213 1478l191 203h317l190 -203h-262l-87 72l-87 -72h-262zM408 482q0 -223 153 -223t153 223v421q0 237 -153 237t-153 -237 v-421z" />
<glyph unicode="&#xd5;" horiz-adv-x="1121" d="M41 565v254q0 316 127 462t393 146q265 0 392.5 -146t127.5 -462v-254q0 -308 -127.5 -450.5t-392.5 -142.5q-266 0 -393 142.5t-127 450.5zM224 1480q6 120 62.5 181t153.5 61q52 0 101 -15t83.5 -30t51.5 -15q19 0 28.5 12.5t13.5 40.5h178q-6 -120 -58.5 -180.5 t-143.5 -60.5q-51 0 -102.5 15t-88.5 30t-53 15q-41 0 -48 -54h-178zM408 482q0 -223 153 -223t153 223v421q0 237 -153 237t-153 -237v-421z" />
<glyph unicode="&#xd6;" horiz-adv-x="1121" d="M41 565v254q0 316 127 462t393 146q265 0 392.5 -146t127.5 -462v-254q0 -308 -127.5 -450.5t-392.5 -142.5q-266 0 -393 142.5t-127 450.5zM227 1480v252h297v-252h-297zM408 482q0 -223 153 -223t153 223v421q0 237 -153 237t-153 -237v-421zM599 1480v252h297v-252 h-297z" />
<glyph unicode="&#xd7;" horiz-adv-x="960" d="M37 462l238 238l-233 234l205 204l233 -233l239 238l204 -205l-238 -238l233 -234l-205 -204l-233 234l-239 -239z" />
<glyph unicode="&#xd8;" horiz-adv-x="1141" d="M21 -100l128 247q-108 147 -108 418v254q0 307 131 457.5t399 150.5q128 0 223 -34l55 107h272l-130 -250q110 -149 110 -431v-254q0 -300 -131 -446.5t-399 -146.5q-128 0 -224 33l-55 -105h-271zM408 648l244 472q-34 20 -81 20q-163 0 -163 -240v-252zM488 278 q34 -19 83 -19q163 0 163 225v269z" />
<glyph unicode="&#xd9;" horiz-adv-x="1112" d="M59 380v1020h364v-999q0 -73 34.5 -111.5t99.5 -38.5q64 0 98.5 38.5t34.5 111.5v999h363v-1020q0 -198 -127.5 -302.5t-368.5 -104.5q-242 0 -370 104.5t-128 302.5zM263 1681h329l101 -202h-260z" />
<glyph unicode="&#xda;" horiz-adv-x="1112" d="M59 380v1020h364v-999q0 -73 34.5 -111.5t99.5 -38.5q64 0 98.5 38.5t34.5 111.5v999h363v-1020q0 -198 -127.5 -302.5t-368.5 -104.5q-242 0 -370 104.5t-128 302.5zM420 1479l100 202h330l-170 -202h-260z" />
<glyph unicode="&#xdb;" horiz-adv-x="1112" d="M59 380v1020h364v-999q0 -73 34.5 -111.5t99.5 -38.5q64 0 98.5 38.5t34.5 111.5v999h363v-1020q0 -198 -127.5 -302.5t-368.5 -104.5q-242 0 -370 104.5t-128 302.5zM208 1478l191 203h317l190 -203h-262l-87 72l-87 -72h-262z" />
<glyph unicode="&#xdc;" horiz-adv-x="1112" d="M59 380v1020h364v-999q0 -73 34.5 -111.5t99.5 -38.5q64 0 98.5 38.5t34.5 111.5v999h363v-1020q0 -198 -127.5 -302.5t-368.5 -104.5q-242 0 -370 104.5t-128 302.5zM222 1480v252h297v-252h-297zM594 1480v252h297v-252h-297z" />
<glyph unicode="&#xdd;" horiz-adv-x="1058" d="M5 1400h380l91 -279q28 -95 52 -234h21q23 133 50 233l85 280h369l-342 -900v-500h-363v500zM399 1479l100 202h330l-170 -202h-260z" />
<glyph unicode="&#xde;" horiz-adv-x="1043" d="M63 0v1400h363v-218h155q220 0 327.5 -101t107.5 -307v-105q0 -204 -107.5 -304t-327.5 -100h-155v-265h-363zM426 545h125q113 0 113 114v126q0 118 -113 118h-125v-358z" />
<glyph unicode="&#xdf;" horiz-adv-x="990" d="M52 0v1023q0 195 119.5 299.5t344.5 104.5q202 0 314 -79t112 -210q0 -49 -22.5 -104t-50 -95t-50 -85.5t-22.5 -79.5q0 -53 60 -161l44 -81q73 -134 73 -248q0 -143 -93 -218.5t-275 -75.5q-73 0 -140 16l16 234q34 -12 69 -12q72 0 72 76q0 57 -56 168l-45 86 q-56 112 -56 191q0 50 22.5 103.5t49 91t49 79t22.5 70.5q0 40 -24 62t-69 22q-106 0 -106 -133v-1044h-358z" />
<glyph unicode="&#xe0;" horiz-adv-x="961" d="M19 250v7q0 51 12 94.5t30 74.5t47.5 58t57 44.5t66.5 33.5t67.5 24.5t68.5 19.5l153 40v101q0 82 -58 82q-36 0 -52.5 -38.5t-15.5 -139.5l-356 18q-3 201 103 304.5t325 103.5q200 0 306 -84.5t106 -248.5v-469q0 -32 10.5 -44.5t35.5 -12.5h28l-36 -240q-30 -5 -60 -5 q-157 0 -215.5 52.5t-45.5 179.5l-20 4q-26 -119 -96.5 -177.5t-195.5 -58.5q-124 0 -194.5 74.5t-70.5 202.5zM157 1400h329l116 -272h-255zM379 310q0 -71 56 -71q41 0 63.5 38.5t22.5 104.5v69l-50 -17q-40 -12 -66 -41.5t-26 -70.5v-12z" />
<glyph unicode="&#xe1;" horiz-adv-x="961" d="M19 250v7q0 51 12 94.5t30 74.5t47.5 58t57 44.5t66.5 33.5t67.5 24.5t68.5 19.5l153 40v101q0 82 -58 82q-36 0 -52.5 -38.5t-15.5 -139.5l-356 18q-3 201 103 304.5t325 103.5q200 0 306 -84.5t106 -248.5v-469q0 -32 10.5 -44.5t35.5 -12.5h28l-36 -240q-30 -5 -60 -5 q-157 0 -215.5 52.5t-45.5 179.5l-20 4q-26 -119 -96.5 -177.5t-195.5 -58.5q-124 0 -194.5 74.5t-70.5 202.5zM329 1128l115 272h330l-190 -272h-255zM379 310q0 -71 56 -71q41 0 63.5 38.5t22.5 104.5v69l-50 -17q-40 -12 -66 -41.5t-26 -70.5v-12z" />
<glyph unicode="&#xe2;" horiz-adv-x="961" d="M19 250v7q0 51 12 94.5t30 74.5t47.5 58t57 44.5t66.5 33.5t67.5 24.5t68.5 19.5l153 40v101q0 82 -58 82q-36 0 -52.5 -38.5t-15.5 -139.5l-356 18q-3 201 103 304.5t325 103.5q200 0 306 -84.5t106 -248.5v-469q0 -32 10.5 -44.5t35.5 -12.5h28l-36 -240q-30 -5 -60 -5 q-157 0 -215.5 52.5t-45.5 179.5l-20 4q-26 -119 -96.5 -177.5t-195.5 -58.5q-124 0 -194.5 74.5t-70.5 202.5zM127 1128l183 272h312l183 -272h-252l-87 87l-87 -87h-252zM379 310q0 -71 56 -71q41 0 63.5 38.5t22.5 104.5v69l-50 -17q-40 -12 -66 -41.5t-26 -70.5v-12z " />
<glyph unicode="&#xe3;" horiz-adv-x="961" d="M19 250v7q0 51 12 94.5t30 74.5t47.5 58t57 44.5t66.5 33.5t67.5 24.5t68.5 19.5l153 40v101q0 82 -58 82q-36 0 -52.5 -38.5t-15.5 -139.5l-356 18q-3 201 103 304.5t325 103.5q200 0 306 -84.5t106 -248.5v-469q0 -32 10.5 -44.5t35.5 -12.5h28l-36 -240q-30 -5 -60 -5 q-157 0 -215.5 52.5t-45.5 179.5l-20 4q-26 -119 -96.5 -177.5t-195.5 -58.5q-124 0 -194.5 74.5t-70.5 202.5zM129 1156q7 139 55 205t146 66q51 0 102 -16.5t87.5 -33.5t53.5 -17q19 0 28.5 14t13.5 47h186q-15 -271 -188 -271q-50 0 -103 17t-92 33.5t-55 16.5 q-23 0 -34 -14t-15 -47h-185zM379 310q0 -71 56 -71q41 0 63.5 38.5t22.5 104.5v69l-50 -17q-40 -12 -66 -41.5t-26 -70.5v-12z" />
<glyph unicode="&#xe4;" horiz-adv-x="961" d="M19 250v7q0 51 12 94.5t30 74.5t47.5 58t57 44.5t66.5 33.5t67.5 24.5t68.5 19.5l153 40v101q0 82 -58 82q-36 0 -52.5 -38.5t-15.5 -139.5l-356 18q-3 201 103 304.5t325 103.5q200 0 306 -84.5t106 -248.5v-469q0 -32 10.5 -44.5t35.5 -12.5h28l-36 -240q-30 -5 -60 -5 q-157 0 -215.5 52.5t-45.5 179.5l-20 4q-26 -119 -96.5 -177.5t-195.5 -58.5q-124 0 -194.5 74.5t-70.5 202.5zM131 1131v252h297v-252h-297zM379 310q0 -71 56 -71q41 0 63.5 38.5t22.5 104.5v69l-50 -17q-40 -12 -66 -41.5t-26 -70.5v-12zM503 1131v252h297v-252h-297z " />
<glyph unicode="&#xe5;" horiz-adv-x="961" d="M19 250v7q0 51 12 94.5t30 74.5t47.5 58t57 44.5t66.5 33.5t67.5 24.5t68.5 19.5l153 40v101q0 82 -58 82q-36 0 -52.5 -38.5t-15.5 -139.5l-356 18q-3 201 103 304.5t325 103.5q200 0 306 -84.5t106 -248.5v-469q0 -32 10.5 -44.5t35.5 -12.5h28l-36 -240q-30 -5 -60 -5 q-157 0 -215.5 52.5t-45.5 179.5l-20 4q-26 -119 -96.5 -177.5t-195.5 -58.5q-124 0 -194.5 74.5t-70.5 202.5zM216 1360q0 105 68.5 168.5t181.5 63.5t181 -63.5t68 -168.5q0 -106 -68 -169.5t-181 -63.5t-181.5 63.5t-68.5 169.5zM379 310q0 -71 56 -71q41 0 63.5 38.5 t22.5 104.5v69l-50 -17q-40 -12 -66 -41.5t-26 -70.5v-12zM407 1360q0 -26 16.5 -42.5t42.5 -16.5t42 16.5t16 42.5t-16.5 42.5t-41.5 16.5q-26 0 -42.5 -16.5t-16.5 -42.5z" />
<glyph unicode="&#xe6;" horiz-adv-x="1431" d="M19 250v22q0 48 12 89t30 70.5t47.5 55.5t57 42.5t66.5 32.5t67.5 24.5t68.5 19.5l153 40v101q0 82 -59 82q-37 0 -52.5 -38t-14.5 -140l-356 18q-3 200 100.5 304t310.5 104q166 0 271 -97q103 97 266 97q200 0 303.5 -114.5t103.5 -328.5q0 -112 -7 -196h-508v-85 q0 -66 22 -99.5t61 -33.5q83 0 84 157l337 -29q-7 -184 -118.5 -279.5t-302.5 -95.5q-151 0 -240.5 60.5t-113.5 175.5h-17q-52 -236 -307 -236q-124 0 -194.5 74.5t-70.5 202.5zM379 302q0 -78 56 -78q40 0 63 45t23 113v72l-50 -14q-92 -27 -92 -112v-26zM879 639h156v69 q0 121 -76 121q-80 0 -80 -150v-40z" />
<glyph unicode="&#xe7;" horiz-adv-x="960" d="M37 444v162q0 239 106.5 355t329.5 116q221 0 332.5 -105.5t112.5 -331.5l-358 -25q-1 119 -20.5 166.5t-59.5 47.5q-77 0 -77 -152v-305q0 -151 79 -151q80 0 80 162v66l365 -27q-7 -399 -358 -443l-7 -48q140 -32 140 -144q0 -78 -53.5 -120t-150.5 -42q-81 0 -165 41 l28 158q54 -32 111 -32q54 0 54 32q0 46 -156 52l17 102q-179 21 -264.5 136t-85.5 330z" />
<glyph unicode="&#xe8;" horiz-adv-x="964" d="M37 439v165q0 230 116 351.5t337 121.5q213 0 325 -115.5t112 -330.5q0 -109 -7 -193h-530v-84q0 -134 96 -134q45 0 68 35t24 122h1l338 -29q-7 -186 -121.5 -280.5t-315.5 -94.5q-215 0 -329 119.5t-114 346.5zM172 1400h329l116 -272h-255zM390 639h178v69 q0 121 -87 121q-91 0 -91 -150v-40z" />
<glyph unicode="&#xe9;" horiz-adv-x="964" d="M37 439v165q0 230 116 351.5t337 121.5q213 0 325 -115.5t112 -330.5q0 -109 -7 -193h-530v-84q0 -134 96 -134q45 0 68 35t24 122h1l338 -29q-7 -186 -121.5 -280.5t-315.5 -94.5q-215 0 -329 119.5t-114 346.5zM345 1128l115 272h330l-190 -272h-255zM390 639h178v69 q0 121 -87 121q-91 0 -91 -150v-40z" />
<glyph unicode="&#xea;" horiz-adv-x="964" d="M37 439v165q0 230 116 351.5t337 121.5q213 0 325 -115.5t112 -330.5q0 -109 -7 -193h-530v-84q0 -134 96 -134q45 0 68 35t24 122h1l338 -29q-7 -186 -121.5 -280.5t-315.5 -94.5q-215 0 -329 119.5t-114 346.5zM142 1128l183 272h312l183 -272h-252l-87 87l-87 -87 h-252zM390 639h178v69q0 121 -87 121q-91 0 -91 -150v-40z" />
<glyph unicode="&#xeb;" horiz-adv-x="964" d="M37 439v165q0 230 116 351.5t337 121.5q213 0 325 -115.5t112 -330.5q0 -109 -7 -193h-530v-84q0 -134 96 -134q45 0 68 35t24 122h1l338 -29q-7 -186 -121.5 -280.5t-315.5 -94.5q-215 0 -329 119.5t-114 346.5zM146 1131v252h297v-252h-297zM390 639h178v69 q0 121 -87 121q-91 0 -91 -150v-40zM518 1131v252h297v-252h-297z" />
<glyph unicode="&#xec;" horiz-adv-x="462" d="M5 1400h322l50 -272h-262zM52 0v1050h358v-1050h-358z" />
<glyph unicode="&#xed;" horiz-adv-x="462" d="M52 0v1050h358v-1050h-358zM85 1128l50 272h322l-110 -272h-262z" />
<glyph unicode="&#xee;" horiz-adv-x="462" d="M-7 1113l102 287h272l102 -287h-182l-56 104l-56 -104h-182zM52 0v1050h358v-1050h-358z" />
<glyph unicode="&#xef;" horiz-adv-x="462" d="M2 1131v264h202v-264h-202zM52 0v1050h358v-1050h-358zM259 1131v264h202v-264h-202z" />
<glyph unicode="&#xf0;" horiz-adv-x="959" d="M37 432v172q0 211 78 324t222 113q99 0 158 -46.5t103 -154.5l20 6q-18 119 -85 265l-207 -35l-38 206l140 24q-5 8 -22 34t-27 40l323 42q30 -40 44 -62l133 23l37 -206l-75 -13q81 -226 81 -505v-222q0 -226 -112.5 -345t-330.5 -119q-215 0 -328.5 117.5t-113.5 341.5 zM395 373q0 -151 84 -151q85 0 85 151v261q0 189 -89 189q-80 0 -80 -155v-295z" />
<glyph unicode="&#xf1;" horiz-adv-x="969" d="M52 0v1050h345q0 -49 -9.5 -91t-36.5 -109l19 -9q104 223 312 223q121 0 180 -61.5t59 -187.5v-815h-358v732q0 83 -59 83q-46 0 -70 -54.5t-24 -155.5v-605h-358zM158 1156q7 139 55 205t146 66q51 0 102 -16.5t87.5 -33.5t53.5 -17q19 0 28.5 14t13.5 47h186 q-15 -271 -188 -271q-50 0 -103 17t-92 33.5t-55 16.5q-23 0 -34 -14t-15 -47h-185z" />
<glyph unicode="&#xf2;" d="M37 440v165q0 228 115.5 350t333.5 122q219 0 335 -122t116 -350v-165q0 -225 -116.5 -346t-334.5 -121t-333.5 121t-115.5 346zM178 1400h329l116 -272h-255zM403 373q0 -151 83 -151q85 0 85 151v302q0 153 -85 153q-83 0 -83 -153v-302z" />
<glyph unicode="&#xf3;" d="M37 440v165q0 228 115.5 350t333.5 122q219 0 335 -122t116 -350v-165q0 -225 -116.5 -346t-334.5 -121t-333.5 121t-115.5 346zM351 1128l115 272h330l-190 -272h-255zM403 373q0 -151 83 -151q85 0 85 151v302q0 153 -85 153q-83 0 -83 -153v-302z" />
<glyph unicode="&#xf4;" d="M37 440v165q0 228 115.5 350t333.5 122q219 0 335 -122t116 -350v-165q0 -225 -116.5 -346t-334.5 -121t-333.5 121t-115.5 346zM149 1128l183 272h312l183 -272h-252l-87 87l-87 -87h-252zM403 373q0 -151 83 -151q85 0 85 151v302q0 153 -85 153q-83 0 -83 -153v-302z " />
<glyph unicode="&#xf5;" d="M37 440v165q0 228 115.5 350t333.5 122q219 0 335 -122t116 -350v-165q0 -225 -116.5 -346t-334.5 -121t-333.5 121t-115.5 346zM151 1156q7 139 55 205t146 66q51 0 102 -16.5t87.5 -33.5t53.5 -17q19 0 28.5 14t13.5 47h186q-15 -271 -188 -271q-50 0 -103 17t-92 33.5 t-55 16.5q-23 0 -34 -14t-15 -47h-185zM403 373q0 -151 83 -151q85 0 85 151v302q0 153 -85 153q-83 0 -83 -153v-302z" />
<glyph unicode="&#xf6;" d="M37 440v165q0 228 115.5 350t333.5 122q219 0 335 -122t116 -350v-165q0 -225 -116.5 -346t-334.5 -121t-333.5 121t-115.5 346zM152 1131v252h297v-252h-297zM403 373q0 -151 83 -151q85 0 85 151v302q0 153 -85 153q-83 0 -83 -153v-302zM524 1131v252h297v-252h-297z " />
<glyph unicode="&#xf7;" horiz-adv-x="936" d="M50 583v275h836v-275h-836zM306 228v293h324v-293h-324zM306 920v294h324v-294h-324z" />
<glyph unicode="&#xf8;" horiz-adv-x="904" d="M0 440v165q0 229 116 350.5t335 121.5q97 0 178 -25l50 98h186l-92 -180q131 -122 131 -365v-165q0 -227 -116.5 -347t-336.5 -120q-97 0 -175 24l-50 -98h-186l91 179q-131 120 -131 362zM343 492l164 321q-23 15 -55 15q-53 0 -81 -40t-28 -115v-181zM398 236 q23 -14 54 -14q53 0 81 39.5t28 114.5v179z" />
<glyph unicode="&#xf9;" horiz-adv-x="970" d="M48 235v815h358v-732q0 -83 59 -83q94 0 94 210v605h358v-1050h-345q1 89 47 200l-19 9q-53 -113 -130 -168t-183 -55q-121 0 -180 61.5t-59 187.5zM174 1400h329l116 -272h-255z" />
<glyph unicode="&#xfa;" horiz-adv-x="970" d="M48 235v815h358v-732q0 -83 59 -83q94 0 94 210v605h358v-1050h-345q1 89 47 200l-19 9q-53 -113 -130 -168t-183 -55q-121 0 -180 61.5t-59 187.5zM347 1128l115 272h330l-190 -272h-255z" />
<glyph unicode="&#xfb;" horiz-adv-x="970" d="M48 235v815h358v-732q0 -83 59 -83q94 0 94 210v605h358v-1050h-345q1 89 47 200l-19 9q-53 -113 -130 -168t-183 -55q-121 0 -180 61.5t-59 187.5zM144 1128l183 272h312l183 -272h-252l-87 87l-87 -87h-252z" />
<glyph unicode="&#xfc;" horiz-adv-x="970" d="M48 235v815h358v-732q0 -83 59 -83q94 0 94 210v605h358v-1050h-345q1 89 47 200l-19 9q-53 -113 -130 -168t-183 -55q-121 0 -180 61.5t-59 187.5zM148 1131v252h297v-252h-297zM520 1131v252h297v-252h-297z" />
<glyph unicode="&#xfd;" horiz-adv-x="908" d="M1 1050h367l53 -439q22 -156 35 -360h20q15 223 32 360l50 439h350l-207 -959q-60 -252 -209 -362.5t-431 -104.5l-30 282l91 7q114 9 121 82l4 42zM334 1128l115 272h330l-190 -272h-255z" />
<glyph unicode="&#xfe;" d="M52 -350v1722h358v-248q0 -77 -11.5 -129.5t-43.5 -144.5l21 -9q42 112 110 167.5t181 55.5q270 0 270 -415v-248q0 -415 -270 -415q-108 0 -177 55.5t-114 166.5l-21 -8q55 -148 55 -303v-247h-358zM410 413q0 -186 89 -186q80 0 80 153v288q0 155 -80 155 q-89 0 -89 -189v-221z" />
<glyph unicode="&#xff;" horiz-adv-x="908" d="M1 1050h367l53 -439q22 -156 35 -360h20q15 223 32 360l50 439h350l-207 -959q-60 -252 -209 -362.5t-431 -104.5l-30 282l91 7q114 9 121 82l4 42zM135 1131v252h297v-252h-297zM507 1131v252h297v-252h-297z" />
<glyph unicode="&#x152;" horiz-adv-x="1526" d="M41 565v254q0 308 109 458t332 150q160 0 274 -98v71h718v-297h-397v-263h361v-257h-361v-286h415v-297h-736v67q-113 -95 -274 -95q-223 0 -332 146.5t-109 446.5zM408 482q0 -223 153 -223t153 223v421q0 237 -153 237t-153 -237v-421z" />
<glyph unicode="&#x153;" horiz-adv-x="1511" d="M37 440v165q0 227 113.5 349.5t322.5 122.5q185 0 287 -96q104 96 294 96q200 0 310 -116t110 -332q0 -103 -8 -191h-530v-84q0 -67 24.5 -100.5t69.5 -33.5q48 0 71.5 34.5t24.5 122.5l338 -29q-7 -185 -119 -280t-306 -95q-184 0 -281 97q-99 -97 -285 -97 q-209 0 -322.5 121t-113.5 346zM403 373q0 -151 83 -151q85 0 85 151v302q0 153 -85 153q-83 0 -83 -153v-302zM936 639h179v69q0 121 -87 121q-92 0 -92 -150v-40z" />
<glyph unicode="&#x178;" horiz-adv-x="1058" d="M5 1400h380l91 -279q28 -95 52 -234h21q23 133 50 233l85 280h369l-342 -900v-500h-363v500zM200 1480v252h297v-252h-297zM572 1480v252h297v-252h-297z" />
<glyph unicode="&#x2c6;" horiz-adv-x="678" d="M0 1128l183 272h312l183 -272h-252l-87 87l-87 -87h-252z" />
<glyph unicode="&#x2dc;" horiz-adv-x="627" d="M-22 1156q7 139 55 205t146 66q51 0 102 -16.5t87.5 -33.5t53.5 -17q19 0 28.5 14t13.5 47h186q-15 -271 -188 -271q-50 0 -103 17t-92 33.5t-55 16.5q-23 0 -34 -14t-15 -47h-185z" />
<glyph unicode="&#x2000;" horiz-adv-x="901" />
<glyph unicode="&#x2001;" horiz-adv-x="1802" />
<glyph unicode="&#x2002;" horiz-adv-x="901" />
<glyph unicode="&#x2003;" horiz-adv-x="1802" />
<glyph unicode="&#x2004;" horiz-adv-x="600" />
<glyph unicode="&#x2005;" horiz-adv-x="450" />
<glyph unicode="&#x2006;" horiz-adv-x="300" />
<glyph unicode="&#x2007;" horiz-adv-x="300" />
<glyph unicode="&#x2008;" horiz-adv-x="225" />
<glyph unicode="&#x2009;" horiz-adv-x="360" />
<glyph unicode="&#x200a;" horiz-adv-x="100" />
<glyph unicode="&#x2010;" horiz-adv-x="637" d="M50 405v282h537v-282h-537z" />
<glyph unicode="&#x2011;" horiz-adv-x="637" d="M50 405v282h537v-282h-537z" />
<glyph unicode="&#x2012;" horiz-adv-x="637" d="M50 405v282h537v-282h-537z" />
<glyph unicode="&#x2013;" horiz-adv-x="906" d="M50 427v240h806v-240h-806z" />
<glyph unicode="&#x2014;" horiz-adv-x="1336" d="M50 427v240h1236v-240h-1236z" />
<glyph unicode="&#x2018;" horiz-adv-x="502" d="M50 764v275q0 199 92 291t280 97l32 -163q-98 -9 -141.5 -44.5t-43.5 -113.5h175v-342h-394z" />
<glyph unicode="&#x2019;" horiz-adv-x="502" d="M47 900q98 9 141.5 44t43.5 113h-175v343h395v-275q0 -200 -92 -292t-280 -97z" />
<glyph unicode="&#x201a;" horiz-adv-x="494" d="M40 -158q97 9 141 44.5t44 113.5h-175v343h394v-276q0 -199 -92 -291t-280 -97z" />
<glyph unicode="&#x201c;" horiz-adv-x="941" d="M50 764v275q0 199 92 291t280 97l32 -163q-98 -9 -141.5 -44.5t-43.5 -113.5h175v-342h-394zM497 764v275q0 200 91.5 291.5t279.5 96.5l33 -163q-98 -9 -141.5 -44.5t-43.5 -113.5h175v-342h-394z" />
<glyph unicode="&#x201d;" horiz-adv-x="948" d="M47 900q98 9 141.5 44t43.5 113h-175v343h395v-275q0 -200 -92 -292t-280 -97zM494 900q97 9 141 44.5t44 112.5h-175v343h394v-275q0 -199 -92 -291.5t-279 -97.5z" />
<glyph unicode="&#x201e;" horiz-adv-x="941" d="M40 -158q97 9 141 44.5t44 113.5h-175v343h394v-276q0 -199 -92 -291t-280 -97zM486 -158q98 9 141.5 44.5t43.5 113.5h-174v343h394v-276q0 -199 -92 -291t-280 -97z" />
<glyph unicode="&#x2022;" horiz-adv-x="704" d="M150 331v405h404v-405h-404z" />
<glyph unicode="&#x2026;" horiz-adv-x="1328" d="M50 0v343h357v-343h-357zM486 0v343h357v-343h-357zM921 0v343h358v-343h-358z" />
<glyph unicode="&#x202f;" horiz-adv-x="360" />
<glyph unicode="&#x2039;" horiz-adv-x="636" d="M37 525l258 425h304l-249 -425l249 -425h-306z" />
<glyph unicode="&#x203a;" horiz-adv-x="636" d="M37 100l249 425l-249 425h304l258 -425l-256 -425h-306z" />
<glyph unicode="&#x205f;" horiz-adv-x="450" />
<glyph unicode="&#x20ac;" horiz-adv-x="1114" d="M10 487v183h71v79h-71v183h75q20 251 140 373t352 122q246 0 369.5 -126t125.5 -387l-338 -36q0 141 -35.5 202.5t-113.5 61.5q-139 0 -145 -210h228l-42 -183h-186v-79h169l-41 -183h-128q0 -228 145 -228q73 0 110 65.5t39 206.5l344 -61q-5 -249 -134 -373.5 t-367 -124.5q-240 0 -359 126t-135 389h-73z" />
<glyph unicode="&#x2122;" horiz-adv-x="1590" d="M11 1192v208h565v-208h-148v-632h-268v632h-149zM618 560v840h318l72 -210q35 -114 57 -299h17q25 184 59 299l69 210h317v-840h-239l1 306q0 100 8 195l-16 3l-116 -504h-188l-114 504l-17 -3q8 -95 8 -195l1 -306h-237z" />
<glyph unicode="&#x25fc;" horiz-adv-x="1050" d="M0 0v1050h1050v-1050h-1050z" />
</font>
</defs>
</svg>
